<svg width="40" height="40" viewBox="0 0 40 40" fill="none" xmlns="http://www.w3.org/2000/svg">
<g id="icon/makeup">
<g id="Vector">
<path d="M32.9365 12.3333L33.4127 13.3333L33.8889 12.3333C33.8889 12.1667 34.0476 12.1667 34.0476 12.1667L35 11.6667L34.0476 11.1667C33.8889 11.1667 33.8889 11 33.8889 11L33.4127 10L32.9365 11C32.9365 11.1667 32.7778 11.1667 32.7778 11.1667L31.6667 11.6667L32.619 12.1667C32.7778 12.1667 32.9365 12.1667 32.9365 12.3333Z" fill="white"/>
<path d="M33.4722 31.8333C33.3333 31.8333 33.1944 31.6667 33.1944 31.5L32.5 30L31.8056 31.5C31.8056 31.6667 31.6667 31.8333 31.5278 31.8333L30 32.5L31.5278 33.1667C31.6667 33.1667 31.8056 33.3333 31.8056 33.5L32.5 35L33.1944 33.5C33.1944 33.3333 33.3333 33.1667 33.4722 33.1667L35 32.5L33.4722 31.8333Z" fill="white"/>
<path d="M34.8007 23.3333C35.2913 21.6667 34.8007 20.5 34.1467 19.8333C33.4926 19.1667 32.6751 18.6667 31.8575 18.5C31.8575 16.1667 31.2035 12.6667 29.0779 10C27.1157 7.83333 24.4995 6.66667 21.0658 6.66667C17.6321 6.66667 14.8524 7.83333 12.8903 10C10.6011 12.5 9.9471 16 9.78359 18.3333C8.96603 18.5 8.14848 19 7.49444 19.6667C7.00391 20.3333 6.34986 21.5 6.8404 23.1667C7.33093 24.8333 8.31199 26.1667 9.45657 26.8333C9.9471 27.1667 10.4376 27.1667 10.9282 27.3333C12.0727 30.3333 15.0159 34.8333 20.4118 35H21.0658C26.4617 34.6667 29.4049 30.3333 30.5494 27.3333C31.04 27.3333 31.5305 27.1667 32.021 26.8333C33.3291 26.3333 34.3102 25 34.8007 23.3333ZM14.6889 11.6667C16.1605 10 18.2861 9.16667 21.0658 9.16667C23.8455 9.16667 25.8076 10 27.2792 11.6667C28.5873 13.1667 29.2414 15.3333 29.4049 17.1667C28.7508 17.5 27.6063 18 26.6252 18.5C19.7577 21 17.3051 15.3333 17.1416 14.6667C16.8146 14.1667 16.1605 13.8333 15.67 14C15.1794 14.1667 14.6889 14.6667 14.6889 15.1667C14.6889 15.3333 14.3619 16.3333 12.2362 17.8333C12.5633 15.8333 13.0538 13.5 14.6889 11.6667ZM31.04 24.8333C30.713 25 30.5494 25 30.2224 25C29.8954 24.8333 29.5684 25 29.2414 25.1667C28.9143 25.3333 28.7508 25.6667 28.5873 26C28.5873 26 26.6252 32.8333 20.7388 32.8333C15.8335 32.6667 13.3808 27.8333 13.0538 26C12.8903 25.6667 12.7268 25.3333 12.3998 25.1667C12.0727 25 11.7457 25 11.4187 25C11.0917 25 10.9282 25 10.6011 24.8333C9.9471 24.5 9.45657 23.6667 9.12955 22.6667C8.96604 22 9.12955 21.6667 9.29306 21.5C9.45657 21.3333 9.62008 21.1667 9.78359 21.1667C9.78359 21.8333 10.4376 22.3333 11.0917 22.3333C11.7457 22.3333 12.2362 21.6667 12.2362 21C14.0349 19.8333 15.343 18.6667 15.997 17.8333C17.4686 19.8333 19.7577 21.6667 23.355 21.6667C24.6631 21.6667 25.9711 21.5 27.6063 20.8333C27.9333 20.6667 28.7508 20.3333 29.5684 20C29.5684 20.6667 29.5684 21 29.5684 21C29.4049 21.6667 29.8954 22.3333 30.5494 22.3333H30.713C31.367 22.3333 31.8575 21.8333 31.8575 21.3333C31.8575 21.3333 31.8575 21.3333 31.8575 21.1667C32.021 21.3333 32.1846 21.3333 32.3481 21.5C32.5116 21.6667 32.6751 22 32.5116 22.6667C32.021 23.6667 31.5305 24.5 31.04 24.8333Z" fill="white"/>
<path d="M7.43902 9.61538L8.25203 11.6667L9.06504 9.61538C9.22764 9.44444 9.39024 9.2735 9.55285 9.10256L11.6667 8.24786L9.71545 7.39316C9.39024 7.22222 9.22764 7.05128 9.22764 6.88034L8.25203 5L7.43902 6.88034C7.27642 7.05128 7.27642 7.22222 6.95122 7.39316L5 8.24786L6.95122 9.10256C7.27642 9.2735 7.27642 9.44444 7.43902 9.61538Z" fill="white"/>
</g>
</g>
</svg>
