<svg width="40" height="40" viewBox="0 0 40 40" fill="none" xmlns="http://www.w3.org/2000/svg">
<g id="icon/style">
<g id="Union">
<path fill-rule="evenodd" clip-rule="evenodd" d="M19.6536 20.9975L25.6759 8.99839C26.4252 7.5047 27.5744 6.29914 28.8617 5.61449C30.1481 4.9303 31.6891 4.7209 33.0243 5.48906C34.3595 6.25722 34.948 7.69171 34.9966 9.14391C35.0452 10.597 34.5721 12.1915 33.6487 13.5849L26.0864 25.0001C26.4419 26.7922 26.2801 29.873 23.741 32.5025C22.2463 34.0505 20.1712 34.6848 18.3097 34.9022C16.429 35.1218 14.5907 34.9377 13.3663 34.6848C12.9475 34.5983 12.4175 34.2344 12.3845 33.5376C12.3512 32.8356 12.8494 32.3868 13.2619 32.2353C13.5669 32.1233 14.0964 31.9138 14.6975 31.286C14.8996 31.075 15.0301 30.7881 15.0876 30.3356C15.1484 29.8578 15.1163 29.2958 15.0535 28.601C15.0451 28.5082 15.0361 28.4125 15.0268 28.3144C14.9716 27.7284 14.9083 27.0558 14.922 26.417C14.9383 25.6583 15.0614 24.8022 15.518 24.0142C16.129 22.9595 16.9995 22.2149 17.8387 21.7255C18.4523 21.3677 19.0875 21.1239 19.6536 20.9975ZM31.7294 12.3095L24.6329 23.0216L21.9824 21.4967L27.7442 10.0165C28.2884 8.93169 29.0933 8.12509 29.8886 7.70211C30.6848 7.27866 31.3547 7.28496 31.8265 7.55638C32.2983 7.8278 32.6387 8.40279 32.6688 9.30156C32.6988 10.1993 32.4001 11.2975 31.7294 12.3095ZM16.5772 32.6345C17.0781 32.6372 17.5984 32.6132 18.1188 32.5525C19.7277 32.3646 21.166 31.8468 22.1045 30.8749C24.0062 28.9054 24.0394 26.6237 23.7935 25.4869L20.0267 23.3199C19.7337 23.3915 19.35 23.5328 18.9482 23.7671C18.3906 24.0923 17.8671 24.5565 17.5155 25.1634C17.3538 25.4424 17.2627 25.8289 17.2506 26.3911C17.2401 26.8798 17.288 27.3935 17.3433 27.9872C17.353 28.0916 17.363 28.1986 17.3729 28.3083C17.4349 28.9942 17.4951 29.7942 17.3974 30.5625C17.3091 31.2568 17.0847 31.9892 16.5772 32.6345Z" fill="white"/>
<path d="M15.3043 17.7812C15.4582 17.8886 15.5652 18.0512 15.6052 18.2384L15.9379 19.7948C15.9615 19.9049 16.1037 19.9291 16.1704 19.8344L17.1131 18.495C17.2264 18.3339 17.3922 18.2177 17.5791 18.1683L19.133 17.7576C19.2429 17.7286 19.2736 17.5832 19.1831 17.52L17.9037 16.6272C17.7498 16.5198 17.6428 16.3572 17.6028 16.17L17.2701 14.6136C17.2465 14.5035 17.1043 14.4793 17.0376 14.574L16.0949 15.9134C15.9816 16.0745 15.8158 16.1907 15.6289 16.2401L14.075 16.6508C13.9651 16.6798 13.9344 16.8252 14.0249 16.8884L15.3043 17.7812Z" fill="white"/>
<path d="M7.40442 26.8754C7.67872 27.0012 7.90071 27.2305 8.02849 27.5202L9.09091 29.9287C9.16605 30.099 9.39307 30.0942 9.46187 29.9207L10.4346 27.4689C10.5516 27.174 10.765 26.9353 11.0344 26.798L13.2748 25.6559C13.4333 25.5751 13.4288 25.331 13.2675 25.2571L10.9867 24.2114C10.7124 24.0856 10.4904 23.8562 10.3626 23.5666L9.30019 21.1581C9.22504 20.9877 8.99802 20.9926 8.92922 21.166L7.95649 23.6179C7.8395 23.9128 7.62614 24.1514 7.35669 24.2888L5.11628 25.4309C4.95782 25.5117 4.96232 25.7557 5.12363 25.8297L7.40442 26.8754Z" fill="white"/>
<path d="M30.2262 30.3257C30.1624 30.1507 30.0396 30.0109 29.8808 29.9327L28.5606 29.2828C28.4673 29.2368 28.4753 29.0904 28.5738 29.0435L29.9662 28.3808C30.1336 28.301 30.2719 28.16 30.355 27.9843L31.0457 26.5233C31.0946 26.42 31.2308 26.4193 31.2683 26.5223L31.7986 27.9775C31.8623 28.1525 31.9852 28.2923 32.144 28.3705L33.4641 29.0204C33.5575 29.0664 33.5495 29.2128 33.451 29.2597L32.0586 29.9224C31.8912 30.0022 31.7528 30.1432 31.6698 30.3189L30.9791 31.7799C30.9302 31.8832 30.794 31.8839 30.7565 31.7809L30.2262 30.3257Z" fill="white"/>
</g>
</g>
</svg>
